<svg width="18" height="9" viewBox="0 0 18 9" fill="none" xmlns="http://www.w3.org/2000/svg">
<path id="vk_red copy" fill-rule="evenodd" clip-rule="evenodd" d="M8.34821 8.77028H9.36818C9.36818 8.77028 9.67604 8.74071 9.83328 8.59233C9.97847 8.45557 9.97365 8.19948 9.97365 8.19948C9.97365 8.19948 9.95377 7.00032 10.5888 6.82343C11.2147 6.64918 12.019 7.98245 12.8709 8.49517C13.5155 8.88328 14.0053 8.79826 14.0053 8.79826L16.2839 8.77028C16.2839 8.77028 17.4755 8.70586 16.9104 7.88477C16.864 7.81771 16.5809 7.27701 15.2163 6.16656C13.7872 5.00436 13.9788 5.19234 15.7001 3.1816C16.7477 1.95762 17.1671 1.20993 17.0357 0.889941C16.911 0.584739 16.1405 0.665528 16.1405 0.665528L13.5746 0.679257C13.5746 0.679257 13.3842 0.656551 13.2432 0.730476C13.1059 0.802816 13.0173 0.971786 13.0173 0.971786C13.0173 0.971786 12.6106 1.91907 12.0696 2.72485C10.9274 4.42511 10.4701 4.51487 10.2833 4.40927C9.84894 4.16321 9.95739 3.42132 9.95739 2.89382C9.95739 1.24583 10.243 0.558865 9.40252 0.380919C9.12358 0.322308 8.91814 0.283233 8.20482 0.276897C7.28968 0.268448 6.51491 0.279009 6.07632 0.467516C5.78412 0.592659 5.5588 0.871988 5.69616 0.887829C5.86546 0.907894 6.24983 0.97865 6.45346 1.22154C6.71613 1.53519 6.7071 2.23906 6.7071 2.23906C6.7071 2.23906 6.85831 4.17852 6.35405 4.41983C6.00824 4.58457 5.5341 4.24769 4.51534 2.70478C3.9936 1.91485 3.59959 1.04149 3.59959 1.04149C3.59959 1.04149 3.52368 0.878324 3.38813 0.790671C3.22366 0.685065 2.99412 0.651271 2.99412 0.651271L0.555948 0.665528C0.555948 0.665528 0.190253 0.674504 0.0559038 0.813905C-0.0639864 0.937992 0.0462644 1.19461 0.0462644 1.19461C0.0462644 1.19461 1.95487 5.10838 4.1159 7.08058C6.09801 8.88908 8.34821 8.77028 8.34821 8.77028Z" fill="white"/>
</svg>
